<svg xmlns="http://www.w3.org/2000/svg" xmlns:xlink="http://www.w3.org/1999/xlink" width="500" zoomAndPan="magnify" viewBox="0 0 375 374.999991" height="500" preserveAspectRatio="xMidYMid meet" version="1.0"><defs><g/></defs><g fill="#000000" fill-opacity="1"><g transform="translate(122.333477, 224.624985)"><g><path d="M 24 0.75 C 16.46875 0.75 11.039062 -1.160156 7.71875 -4.984375 C 4.394531 -8.816406 2.734375 -14.6875 2.734375 -22.59375 L 2.734375 -43.859375 C 2.734375 -49.816406 3.375 -54.660156 4.65625 -58.390625 C 5.945312 -62.128906 8.113281 -64.9375 11.15625 -66.8125 C 14.195312 -68.695312 18.414062 -69.640625 23.8125 -69.640625 C 29.707031 -69.640625 34.503906 -68.101562 38.203125 -65.03125 C 41.910156 -61.957031 43.765625 -57.660156 43.765625 -52.140625 L 43.765625 -41.59375 L 27.015625 -41.59375 L 27.015625 -51.296875 C 27.015625 -53.109375 26.757812 -54.5 26.25 -55.46875 C 25.75 -56.445312 24.78125 -56.9375 23.34375 -56.9375 C 20.644531 -56.9375 19.296875 -55.023438 19.296875 -51.203125 L 19.296875 -17.78125 C 19.296875 -16.21875 19.625 -14.882812 20.28125 -13.78125 C 20.9375 -12.6875 21.925781 -12.140625 23.25 -12.140625 C 24.5625 -12.140625 25.546875 -12.671875 26.203125 -13.734375 C 26.867188 -14.804688 27.171875 -16.1875 27.109375 -17.875 L 27.015625 -29.453125 L 43.765625 -29.453125 L 43.765625 -17.40625 C 43.765625 -11.757812 41.925781 -7.320312 38.25 -4.09375 C 34.582031 -0.863281 29.832031 0.75 24 0.75 Z M 24 0.75 "/></g></g></g><g fill="#000000" fill-opacity="1"><g transform="translate(163.361367, 224.624985)"><g><path d="M 3.296875 -81.3125 L 20.234375 -81.3125 L 20.234375 -62.109375 C 21.992188 -67.128906 25.347656 -69.640625 30.296875 -69.640625 C 34.941406 -69.640625 38.457031 -68.164062 40.84375 -65.21875 C 43.226562 -62.269531 44.421875 -58.222656 44.421875 -53.078125 L 44.421875 0 L 27.953125 0 L 27.953125 -52.046875 C 27.953125 -53.546875 27.601562 -54.765625 26.90625 -55.703125 C 26.21875 -56.648438 25.21875 -57.125 23.90625 -57.125 C 22.769531 -57.125 21.875 -56.632812 21.21875 -55.65625 C 20.5625 -54.6875 20.234375 -53.515625 20.234375 -52.140625 L 20.234375 0 L 3.296875 0 Z M 3.296875 -81.3125 "/></g></g></g><g fill="#000000" fill-opacity="1"><g transform="translate(205.706679, 224.624985)"><g><path d="M 16.5625 0.75 C 11.414062 0.75 7.882812 -0.785156 5.96875 -3.859375 C 4.0625 -6.929688 3.109375 -11.507812 3.109375 -17.59375 L 3.109375 -68.890625 L 19.671875 -68.890625 L 19.671875 -20.890625 C 19.671875 -20.453125 19.671875 -19.273438 19.671875 -17.359375 C 19.671875 -15.453125 19.96875 -14.101562 20.5625 -13.3125 C 21.15625 -12.53125 22.082031 -12.140625 23.34375 -12.140625 C 25.03125 -12.140625 26.09375 -12.84375 26.53125 -14.25 C 26.976562 -15.664062 27.203125 -17.691406 27.203125 -20.328125 L 27.203125 -20.890625 L 27.296875 -68.890625 L 43.671875 -68.890625 L 43.671875 0 L 27.203125 0 L 27.203125 -7.34375 C 26.066406 -4.457031 24.742188 -2.382812 23.234375 -1.125 C 21.734375 0.125 19.507812 0.75 16.5625 0.75 Z M 16.5625 0.75 "/></g></g></g></svg>